<svg width="40" height="40" viewBox="0 0 40 40" fill="none" xmlns="http://www.w3.org/2000/svg">
<circle cx="20" cy="20" r="19.5" fill="white" stroke="#E1E1E1"/>
<path d="M21.9235 18.5665C20.9911 18.5665 20.2351 19.3225 20.2351 20.2549C20.2351 21.1873 20.9911 21.9433 21.9235 21.9433C22.8559 21.9433 23.6119 21.1873 23.6119 20.2549C23.6119 19.3225 22.8559 18.5665 21.9235 18.5665Z" fill="#DCDCDC"/>
<path d="M27.2351 14.7775C27.1199 14.6623 26.9903 14.5651 26.8463 14.4859C26.7509 14.4337 26.6501 14.3905 26.5439 14.3581C26.3855 14.3095 26.2163 14.2825 26.0417 14.2825C25.8671 14.2825 25.6979 14.3095 25.5395 14.3581C25.4333 14.3905 25.3325 14.4337 25.2371 14.4859C25.0931 14.5633 24.9617 14.6623 24.8483 14.7775C24.5423 15.0835 24.3533 15.5047 24.3533 15.9727C24.3533 16.9051 25.1093 17.6611 26.0417 17.6611C26.9741 17.6611 27.7301 16.9051 27.7301 15.9727C27.7301 15.5065 27.5411 15.0835 27.2351 14.7775Z" fill="#DCDCDC"/>
<path d="M26.0417 18.5665C25.1093 18.5665 24.3533 19.3225 24.3533 20.2549C24.3533 21.1873 25.1093 21.9433 26.0417 21.9433C26.9741 21.9433 27.7301 21.1873 27.7301 20.2549C27.7301 19.3225 26.9741 18.5665 26.0417 18.5665Z" fill="#DCDCDC"/>
<path d="M26.0417 22.8486C25.1093 22.8486 24.3533 23.6046 24.3533 24.537C24.3533 25.0032 24.5423 25.4262 24.8483 25.7322C24.9635 25.8474 25.0931 25.9446 25.2371 26.0238C25.3325 26.076 25.4333 26.1192 25.5395 26.1516C25.6979 26.2002 25.8671 26.2272 26.0417 26.2272C26.2163 26.2272 26.3855 26.2002 26.5439 26.1516C26.6501 26.1192 26.7509 26.076 26.8463 26.0238C26.9903 25.9464 27.1217 25.8474 27.2351 25.7322C27.5411 25.4262 27.7301 25.005 27.7301 24.537C27.7301 23.6046 26.9741 22.8486 26.0417 22.8486Z" fill="#DCDCDC"/>
<path d="M31.8487 20.2549C31.8487 19.3225 31.0927 18.5665 30.1603 18.5665C29.2279 18.5665 28.4719 19.3225 28.4719 20.2549C28.4719 21.1873 29.2279 21.9433 30.1603 21.9433C31.0927 21.9433 31.8487 21.1873 31.8487 20.2549Z" fill="#DCDCDC"/>
<path d="M18.0766 13.3552C18.997 13.2058 19.6221 12.3386 19.4726 11.4181C19.3232 10.4977 18.456 9.87266 17.5355 10.0221C16.6151 10.1715 15.9901 11.0387 16.1395 11.9592C16.2889 12.8796 17.1562 13.5046 18.0766 13.3552Z" fill="#DCDCDC"/>
<path d="M18.0773 17.6397C18.9977 17.4903 19.6228 16.623 19.4734 15.7026C19.324 14.7821 18.4567 14.1571 17.5363 14.3065C16.6158 14.4559 15.9908 15.3232 16.1402 16.2436C16.2896 17.1641 17.1569 17.7891 18.0773 17.6397Z" fill="#DCDCDC"/>
<path d="M21.9235 13.377C22.8559 13.377 23.6119 12.6211 23.6119 11.6886C23.6119 10.7561 22.8559 10.0002 21.9235 10.0002C20.991 10.0002 20.2351 10.7561 20.2351 11.6886C20.2351 12.6211 20.991 13.377 21.9235 13.377Z" fill="#DCDCDC"/>
<path d="M23.1186 14.7775C23.0034 14.6623 22.8738 14.5651 22.7298 14.4859C22.6344 14.4337 22.5336 14.3905 22.4274 14.3581C22.269 14.3095 22.0998 14.2825 21.9252 14.2825C21.7506 14.2825 21.5814 14.3095 21.423 14.3581C21.3168 14.3905 21.216 14.4337 21.1206 14.4859C20.9766 14.5633 20.8452 14.6623 20.7318 14.7775C20.4258 15.0835 20.2368 15.5047 20.2368 15.9727C20.2368 16.9051 20.9928 17.6611 21.9252 17.6611C22.8576 17.6611 23.6136 16.9051 23.6136 15.9727C23.6136 15.5065 23.4246 15.0835 23.1186 14.7775Z" fill="#DCDCDC"/>
<path d="M18.0782 26.205C18.9986 26.0556 19.6237 25.1883 19.4743 24.2679C19.3248 23.3475 18.4576 22.7224 17.5371 22.8718C16.6167 23.0212 15.9917 23.8885 16.1411 24.8089C16.2905 25.7294 17.1578 26.3544 18.0782 26.205Z" fill="#DCDCDC"/>
<path d="M19.0002 27.6277C18.885 27.5125 18.7554 27.4153 18.6114 27.3361C18.516 27.2839 18.4152 27.2407 18.309 27.2083C18.1506 27.1597 17.9814 27.1327 17.8068 27.1327C17.6322 27.1327 17.463 27.1597 17.3046 27.2083C17.1984 27.2407 17.0976 27.2839 17.0022 27.3361C16.8582 27.4135 16.7268 27.5125 16.6134 27.6277C16.3074 27.9337 16.1184 28.3549 16.1184 28.8229C16.1184 29.7553 16.8744 30.5113 17.8068 30.5113C18.7392 30.5113 19.4952 29.7553 19.4952 28.8229C19.4952 28.3567 19.3062 27.9337 19.0002 27.6277Z" fill="#DCDCDC"/>
<path d="M21.9235 22.8486C20.9911 22.8486 20.2351 23.6046 20.2351 24.537C20.2351 25.4694 20.9911 26.2254 21.9235 26.2254C22.8559 26.2254 23.6119 25.4694 23.6119 24.537C23.6119 23.6046 22.8559 22.8486 21.9235 22.8486Z" fill="#DCDCDC"/>
<path d="M21.9235 27.1327C20.9911 27.1327 20.2351 27.8887 20.2351 28.8211C20.2351 29.7535 20.9911 30.5095 21.9235 30.5095C22.8559 30.5095 23.6119 29.7535 23.6119 28.8211C23.6119 27.8887 22.8559 27.1327 21.9235 27.1327Z" fill="#DCDCDC"/>
<path d="M13.6884 13.3771C14.6209 13.3771 15.3768 12.6212 15.3768 11.6887C15.3768 10.7562 14.6209 10.0003 13.6884 10.0003C12.7559 10.0003 12 10.7562 12 11.6887C12 12.6212 12.7559 13.3771 13.6884 13.3771Z" fill="#DCDCDC"/>
<path d="M13.6884 30.5095C14.6209 30.5095 15.3768 29.7535 15.3768 28.8211C15.3768 27.8886 14.6209 27.1327 13.6884 27.1327C12.7559 27.1327 12 27.8886 12 28.8211C12 29.7535 12.7559 30.5095 13.6884 30.5095Z" fill="#DCDCDC"/>
</svg>
