<svg width="59" height="59" viewBox="0 0 59 59" fill="none" xmlns="http://www.w3.org/2000/svg">
<circle cx="29.04" cy="29.04" r="28.314" fill="#0E2C84" stroke="#2544A0" stroke-width="1.452"/>
<path d="M31.8337 26.9585C30.4798 26.9585 29.3821 28.0562 29.3821 29.4101C29.3821 30.7639 30.4798 31.8616 31.8337 31.8616C33.1875 31.8616 34.2852 30.7639 34.2852 29.4101C34.2852 28.0562 33.1875 26.9585 31.8337 26.9585Z" fill="#4262C3"/>
<path d="M39.5462 21.4569C39.3789 21.2896 39.1908 21.1485 38.9817 21.0335C38.8431 20.9577 38.6968 20.895 38.5426 20.8479C38.3126 20.7774 38.0669 20.7382 37.8134 20.7382C37.5599 20.7382 37.3142 20.7774 37.0842 20.8479C36.93 20.895 36.7836 20.9577 36.6451 21.0335C36.436 21.1459 36.2452 21.2896 36.0806 21.4569C35.6363 21.9012 35.3618 22.5128 35.3618 23.1923C35.3618 24.5462 36.4595 25.6439 37.8134 25.6439C39.1672 25.6439 40.2649 24.5462 40.2649 23.1923C40.2649 22.5154 39.9905 21.9012 39.5462 21.4569Z" fill="#4262C3"/>
<path d="M37.8134 26.9585C36.4595 26.9585 35.3618 28.0562 35.3618 29.4101C35.3618 30.7639 36.4595 31.8616 37.8134 31.8616C39.1672 31.8616 40.2649 30.7639 40.2649 29.4101C40.2649 28.0562 39.1672 26.9585 37.8134 26.9585Z" fill="#4262C3"/>
<path d="M37.8134 33.1763C36.4595 33.1763 35.3618 34.274 35.3618 35.6278C35.3618 36.3047 35.6363 36.9189 36.0806 37.3632C36.2478 37.5305 36.436 37.6716 36.6451 37.7866C36.7836 37.8624 36.93 37.9252 37.0842 37.9722C37.3142 38.0428 37.5599 38.082 37.8134 38.082C38.0669 38.082 38.3126 38.0428 38.5426 37.9722C38.6968 37.9252 38.8431 37.8624 38.9817 37.7866C39.1908 37.6743 39.3815 37.5305 39.5462 37.3632C39.9905 36.9189 40.2649 36.3074 40.2649 35.6278C40.2649 34.274 39.1672 33.1763 37.8134 33.1763Z" fill="#4262C3"/>
<path d="M46.2451 29.4101C46.2451 28.0562 45.1474 26.9585 43.7935 26.9585C42.4397 26.9585 41.342 28.0562 41.342 29.4101C41.342 30.7639 42.4397 31.8616 43.7935 31.8616C45.1474 31.8616 46.2451 30.7639 46.2451 29.4101Z" fill="#4262C3"/>
<path d="M26.248 19.3918C27.5845 19.1749 28.492 17.9156 28.2751 16.5791C28.0581 15.2427 26.7989 14.3351 25.4624 14.5521C24.1259 14.769 23.2184 16.0283 23.4353 17.3647C23.6523 18.7012 24.9115 19.6088 26.248 19.3918Z" fill="#4262C3"/>
<path d="M26.2491 25.6128C27.5855 25.3959 28.4931 24.1366 28.2761 22.8002C28.0592 21.4637 26.7999 20.5561 25.4635 20.7731C24.127 20.99 23.2194 22.2493 23.4364 23.5858C23.6533 24.9222 24.9126 25.8298 26.2491 25.6128Z" fill="#4262C3"/>
<path d="M31.8337 19.4234C33.1876 19.4234 34.2852 18.3258 34.2852 16.9719C34.2852 15.6179 33.1876 14.5203 31.8337 14.5203C30.4797 14.5203 29.3821 15.6179 29.3821 16.9719C29.3821 18.3258 30.4797 19.4234 31.8337 19.4234Z" fill="#4262C3"/>
<path d="M33.569 21.4569C33.4018 21.2896 33.2136 21.1485 33.0045 21.0335C32.866 20.9577 32.7196 20.895 32.5654 20.8479C32.3354 20.7774 32.0897 20.7382 31.8362 20.7382C31.5827 20.7382 31.337 20.7774 31.107 20.8479C30.9528 20.895 30.8065 20.9577 30.6679 21.0335C30.4589 21.1459 30.2681 21.2896 30.1034 21.4569C29.6591 21.9012 29.3847 22.5128 29.3847 23.1923C29.3847 24.5462 30.4824 25.6439 31.8362 25.6439C33.1901 25.6439 34.2878 24.5462 34.2878 23.1923C34.2878 22.5154 34.0134 21.9012 33.569 21.4569Z" fill="#4262C3"/>
<path d="M26.2503 38.0497C27.5868 37.8327 28.4944 36.5735 28.2774 35.237C28.0605 33.9005 26.8012 32.993 25.4647 33.2099C24.1283 33.4268 23.2207 34.6861 23.4377 36.0226C23.6546 37.3591 24.9139 38.2666 26.2503 38.0497Z" fill="#4262C3"/>
<path d="M27.5891 40.1154C27.4218 39.9481 27.2337 39.807 27.0246 39.692C26.886 39.6162 26.7397 39.5535 26.5855 39.5064C26.3555 39.4358 26.1098 39.3966 25.8563 39.3966C25.6028 39.3966 25.3571 39.4358 25.1271 39.5064C24.9729 39.5535 24.8265 39.6162 24.688 39.692C24.4789 39.8044 24.2881 39.9481 24.1235 40.1154C23.6792 40.5597 23.4047 41.1713 23.4047 41.8508C23.4047 43.2047 24.5024 44.3024 25.8563 44.3024C27.2101 44.3024 28.3078 43.2047 28.3078 41.8508C28.3078 41.1739 28.0334 40.5597 27.5891 40.1154Z" fill="#4262C3"/>
<path d="M31.8337 33.1763C30.4798 33.1763 29.3821 34.274 29.3821 35.6278C29.3821 36.9817 30.4798 38.0794 31.8337 38.0794C33.1875 38.0794 34.2852 36.9817 34.2852 35.6278C34.2852 34.274 33.1875 33.1763 31.8337 33.1763Z" fill="#4262C3"/>
<path d="M31.8337 39.3966C30.4798 39.3966 29.3821 40.4943 29.3821 41.8482C29.3821 43.202 30.4798 44.2998 31.8337 44.2998C33.1875 44.2998 34.2852 43.202 34.2852 41.8482C34.2852 40.4943 33.1875 39.3966 31.8337 39.3966Z" fill="#4262C3"/>
<path d="M19.8764 19.4236C21.2303 19.4236 22.3279 18.326 22.3279 16.972C22.3279 15.6181 21.2303 14.5205 19.8764 14.5205C18.5224 14.5205 17.4248 15.6181 17.4248 16.972C17.4248 18.326 18.5224 19.4236 19.8764 19.4236Z" fill="#4262C3"/>
<path d="M19.8764 44.2998C21.2303 44.2998 22.3279 43.2022 22.3279 41.8482C22.3279 40.4942 21.2303 39.3966 19.8764 39.3966C18.5224 39.3966 17.4248 40.4942 17.4248 41.8482C17.4248 43.2022 18.5224 44.2998 19.8764 44.2998Z" fill="#4262C3"/>
</svg>
