<svg width="320" height="44" viewBox="0 0 320 44" fill="none" xmlns="http://www.w3.org/2000/svg">
<g clip-path="url(#clip0_25_4)">
<path d="M117.666 38.9102H107.558L103.932 18.2924H103.829L100.28 38.9102H90.1463L80.9902 5.06402H91.175L94.6729 22.2971L98.0935 5.06402H109.924L113.242 22.5813L116.843 5.06402H127.079L117.64 38.9102H117.666Z" fill="white"></path>
<path d="M129.265 5.06403H157.145V13.7452H139.63V17.9566H155.525V26.0176H139.63V30.229H157.66V38.9102H129.265V5.06403Z" fill="white"></path>
<path d="M171.959 5.06403H182.093L194.361 38.9102H183.61L182.196 34.0787H171.497L169.979 38.9102H159.563L171.959 5.06403ZM180.112 26.8186L177.103 16.3805H177L173.734 26.8186H180.112Z" fill="white"></path>
<path d="M198.605 13.7452H189.166V5.06403H218.409V13.7452H208.97V38.9102H198.579V13.7452H198.605Z" fill="white"></path>
<path d="M221.212 5.06403H231.603V16.8198H241.325V5.06403H251.715V38.9102H241.325V25.5009H231.603V38.9102H221.212V5.06403Z" fill="white"></path>
<path d="M256.396 5.06403H284.276V13.7452H266.761V17.9566H282.656V26.0176H266.761V30.229H284.79V38.9102H256.396V5.06403Z" fill="white"></path>
<path d="M288.211 5.06403H307.989C313.879 5.06403 318.971 8.3453 318.971 14.727C318.971 18.2408 317.377 21.9354 313.93 23.2014C316.759 24.2866 318.508 27.4128 318.894 31.6501C319.048 33.3036 319.074 37.3341 320.026 38.9102H309.635C309.121 37.205 308.915 35.4481 308.786 33.6912C308.503 30.4616 308.221 27.1028 304.105 27.1028H298.576V38.9102H288.185V5.06403H288.211ZM298.576 19.8685H304.003C305.932 19.8685 308.581 19.5326 308.581 16.5097C308.581 14.3653 307.398 13.1509 303.437 13.1509H298.576V19.8685Z" fill="white"></path>
<path d="M33.2037 5.06402H20.524L10.3906 15.0628V5.06402H0V38.9102H10.3906V28.9113L20.524 38.9102H33.2037L16.0489 21.9871L33.2037 5.06402Z" fill="white"></path>
<path d="M76.3093 25.8626C73.1715 24.9583 69.9309 24.5191 66.6645 24.5191C62.678 24.5191 58.7687 25.1908 55.0394 26.5085C51.6444 27.697 48.0695 28.3171 44.4173 28.3171C41.4853 28.3171 38.579 27.9295 35.7756 27.1286L34.7983 29.919C36.1614 30.3065 37.5502 30.6166 38.9391 30.8233V33.562L55.5538 44L72.1685 33.562V27.9295C73.223 28.1104 74.3032 28.3429 75.332 28.653L76.3093 25.8626ZM67.9505 31.2108L55.5538 38.9877L43.1828 31.2366C43.5943 31.2366 44.0058 31.2366 44.4173 31.2366C48.4038 31.2366 52.2874 30.5649 56.0167 29.2731C59.4374 28.0587 63.0124 27.4645 66.6645 27.4645C67.1018 27.4645 67.5133 27.4645 67.9505 27.4903V31.2108Z" fill="white"></path>
<path d="M72.1685 13.1768V10.4381L55.5538 3.05176e-05L38.9391 10.4381V16.0705C37.8846 15.8896 36.8044 15.6571 35.7756 15.3471L34.7983 18.1374C37.9103 19.0417 41.151 19.4809 44.4173 19.4809C48.4038 19.4809 52.2874 18.8092 56.0167 17.5174C59.4374 16.303 63.0124 15.7088 66.6645 15.7088C69.6223 15.7088 72.5285 16.1222 75.3577 16.8973L76.335 14.1069C74.9719 13.7193 73.583 13.4093 72.1942 13.1768H72.1685ZM55.0394 14.727C51.6444 15.9155 48.0695 16.5356 44.4173 16.5356C44.0058 16.5356 43.5686 16.5356 43.1571 16.5097V12.7892L55.5538 5.01236L67.9248 12.7634C67.5133 12.7634 67.076 12.7634 66.6645 12.7634C62.678 12.7634 58.7687 13.4351 55.0394 14.7528V14.727Z" fill="white"></path>
<path d="M66.6645 18.6283C62.678 18.6283 58.7686 19.3001 55.0393 20.6178C51.6444 21.8063 48.0694 22.4263 44.4173 22.4263C40.7651 22.4263 37.2673 21.8321 33.8981 20.6694L32.9207 23.434C36.5986 24.7258 40.4822 25.3717 44.4173 25.3717C48.3523 25.3717 52.2874 24.7 56.0167 23.4081C59.4374 22.1938 63.0123 21.5996 66.6645 21.5996C70.3166 21.5996 73.8402 22.1938 77.2094 23.3823L78.1867 20.6178C74.4832 19.3259 70.6253 18.68 66.6645 18.68V18.6283Z" fill="white"></path>
</g>
<defs>
<clipPath id="clip0_25_4">
<rect width="320" height="44" fill="white"></rect>
</clipPath>
</defs>
</svg>