<svg width="215" height="80" viewBox="0 0 215 80" fill="none" xmlns="http://www.w3.org/2000/svg">
<path d="M110.125 37.8281C110.125 40.0625 111.875 42.5 113.781 43.4219L113.203 44.2031C111.672 43.4297 110.273 41.7422 109.656 39.8281C109.023 41.8984 107.523 43.7422 106.016 44.5469L105.406 43.7656C107.281 42.8281 109.156 40.2031 109.172 37.8281V35.7188H105.891V34.875H113.344V35.7188H110.125V37.8281ZM116.219 33.4375V39.1094H118.594V39.9531H116.219V47.2188H115.234V33.4375H116.219ZM123.422 37.5C123.422 39.6719 124.641 42.0625 126.453 43.1094L125.859 43.875C124.5 43.0547 123.461 41.5078 122.969 39.7656C122.469 41.6641 121.359 43.3047 119.969 44.1562L119.312 43.4219C121.172 42.3594 122.469 39.9062 122.484 37.5312V34.7656H123.422V37.5ZM131.203 33.4375V47.2188H130.25V33.4375H131.203ZM128.359 33.75V46.5H127.422V39.3281H124.906V38.4688H127.422V33.75H128.359ZM144.578 33.4375V47.2188H143.594V33.4375H144.578ZM141.953 35.7188V36.5469H133.578V35.7188H137.266V33.5469H138.25V35.7188H141.953ZM137.797 37.7969C139.766 37.7969 141.172 39.0781 141.172 40.9219C141.172 42.7656 139.766 44.0469 137.797 44.0469C135.812 44.0469 134.406 42.7656 134.406 40.9219C134.406 39.0781 135.812 37.7969 137.797 37.7969ZM137.797 38.625C136.375 38.6406 135.344 39.6094 135.344 40.9219C135.344 42.2344 136.375 43.2031 137.797 43.1875C139.203 43.2031 140.234 42.2344 140.234 40.9219C140.234 39.6094 139.203 38.6406 137.797 38.625ZM163.578 44.5625V45.4062H150.953V44.5625H156.734V41.4531H152.484V34.4375H153.484V37.0312H161.016V34.4375H161.984V41.4531H157.719V44.5625H163.578ZM153.484 40.625H161.016V37.8594H153.484V40.625ZM176.109 33.4375V47.2188H175.141V33.4375H176.109ZM172.047 34.9531C172.031 38.8438 170.078 42.3594 165.547 44.5469L165 43.7344C168.781 41.9453 170.805 39.125 171.062 35.7656H165.609V34.9531H172.047Z" fill="#B0B6C7"/>
<path d="M84.4732 45.9848H36V41.9359H78.5799L66.1788 28.8624L68.9328 26L88 46" fill="#3A5196"/>
</svg>
