<svg width="320" height="44" viewBox="0 0 320 44" fill="none" xmlns="http://www.w3.org/2000/svg">
<g clip-path="url(#clip0_2_18)">
<path d="M117.667 38.897H107.582L103.932 18.2956H103.82L100.282 38.897H90.1224L80.9785 5.06539H91.1761L94.6756 22.3025L98.0999 5.06539H109.915L113.227 22.6049L116.839 5.06539H127.074L117.629 38.897H117.667Z" fill="#0047BA"></path>
<path d="M129.257 5.0654H157.14V13.7218H139.643V17.9554H155.56V26.007H139.643V30.2407H157.667V38.897H129.257V5.0654Z" fill="#0047BA"></path>
<path d="M171.966 5.0654H182.126L194.393 38.897H183.631L182.202 34.0585H171.477L169.972 38.897H159.549L171.966 5.0654ZM180.132 26.8386L177.122 16.4056H177.046L173.773 26.8386H180.132Z" fill="#0047BA"></path>
<path d="M198.608 13.7596H189.163V5.0654H218.401V13.7218H208.956V38.897H198.57V13.7596H198.608Z" fill="#0047BA"></path>
<path d="M221.223 5.0654H231.609V16.8214H241.317V5.0654H251.703V38.897H241.317V25.4778H231.609V38.897H221.223V5.0654Z" fill="#0047BA"></path>
<path d="M256.369 5.0654H284.252V13.7218H266.755V17.9554H282.672V26.007H266.755V30.2407H284.779V38.897H256.369V5.0654Z" fill="#0047BA"></path>
<path d="M288.203 5.0654H307.959C313.867 5.0654 318.947 8.35406 318.947 14.7424C318.947 18.2578 317.329 21.9623 313.904 23.2097C316.726 24.3059 318.495 27.4434 318.871 31.6393C319.022 33.3025 319.059 37.3094 320 38.897H309.614C309.088 37.196 308.9 35.4194 308.749 33.6805C308.448 30.4675 308.185 27.1032 304.083 27.1032H298.551V38.897H288.166V5.0654H288.203ZM298.589 19.8455H304.008C305.927 19.8455 308.599 19.5053 308.599 16.4812C308.599 14.3644 307.432 13.1169 303.443 13.1169H298.589V19.8455Z" fill="#0047BA"></path>
<path d="M33.1891 5.06539H20.508L10.3857 15.0826V5.06539H0V38.897H10.3857V28.9176L20.508 38.897H33.1891L16.0677 22.0001L33.1891 5.06539Z" fill="#0047BA"></path>
<path d="M76.3125 25.8557C73.1893 24.9485 69.9532 24.4948 66.6418 24.4948C62.6531 24.4948 58.7396 25.1753 55.0143 26.4605C51.5901 27.6701 48.0529 28.2749 44.4029 28.2749C41.4678 28.2749 38.5703 27.8969 35.7857 27.1031L34.8074 29.9003C36.162 30.2783 37.5543 30.5808 38.9466 30.8076V33.567L55.5411 44L72.1357 33.567V27.9347C73.1893 28.1237 74.2429 28.3505 75.2966 28.6529L76.2749 25.8557H76.3125ZM67.9588 31.2234L55.5788 39.0103L43.2363 31.2612C43.6503 31.2612 44.0642 31.2612 44.4405 31.2612C48.4292 31.2612 52.305 30.5808 56.0303 29.2955C59.4546 28.0859 63.0294 27.4811 66.6794 27.4811C67.0934 27.4811 67.5449 27.4811 67.9588 27.4811V31.1856V31.2234Z" fill="#0047BA"></path>
<path d="M72.1733 13.1924V10.433L55.5411 0L38.9466 10.433V16.0653C37.893 15.8763 36.8394 15.6495 35.7857 15.3471L34.8074 18.1443C37.9306 19.0515 41.1667 19.5052 44.4405 19.5052C48.4292 19.5052 52.305 18.8247 56.0303 17.5395C59.4546 16.3299 63.0294 15.7251 66.6794 15.7251C69.6521 15.7251 72.5496 16.1409 75.3718 16.9347L76.3502 14.1375C74.9955 13.7594 73.6032 13.457 72.2109 13.2302L72.1733 13.1924ZM55.052 14.7045C51.6277 15.9141 48.0905 16.5189 44.4405 16.5189C44.0266 16.5189 43.6126 16.5189 43.1987 16.5189V12.8144L55.5788 5.02749L67.9588 12.7766C67.5449 12.7766 67.131 12.7766 66.6794 12.7766C62.6907 12.7766 58.7773 13.457 55.052 14.7423V14.7045Z" fill="#0047BA"></path>
<path d="M66.6417 18.6357C62.653 18.6357 58.7395 19.3161 55.0142 20.6013C51.5899 21.811 48.0528 22.4158 44.4027 22.4158C40.7527 22.4158 37.2532 21.811 33.9041 20.6391L32.9258 23.3986C36.6135 24.6838 40.4893 25.3264 44.4027 25.3264C48.3162 25.3264 52.2673 24.646 55.9926 23.3608C59.4168 22.1512 62.9916 21.5464 66.6417 21.5464C70.2917 21.5464 73.7913 22.1512 77.1779 23.323L78.1563 20.5635C74.4686 19.2783 70.5928 18.5979 66.6417 18.5979V18.6357Z" fill="#009ADE"></path>
</g>
<defs>
<clipPath id="clip0_2_18">
<rect width="320" height="44" fill="white"></rect>
</clipPath>
</defs>
</svg>